# xmcd
#
# Track frame offsets:
#	150
#	9270
#	24225
#	44200
#	59834
#	81898
#	112005
#	127555
#	145285
#	169204
#	184194
#	204587
#
# Disc length: 2826 seconds
#
# Revision: 0
# Processed by: cddbd v1.5.2PL0 Copyright (c) Steve Scherf et al.
# Submitted via: audiograbber 1.83.01
#
DISCID=a60b080c
DTITLE=Stitch - Live im Klimperkasten Fritzlar (13.01.1988) CD II
DYEAR=1988
DGENRE=Blues
TTITLE0=20th Flight Rock
TTITLE1=One Way Out
TTITLE2=Caledonia
TTITLE3=Crazy About my Baby
TTITLE4=Slow Train Comming
TTITLE5=Stormy Monday
TTITLE6=Mini Skirt
TTITLE7=You Don't Love Me
TTITLE8=I Can't Hold Out
TTITLE9=Blue Suade Shoes
TTITLE10=False Accusations
TTITLE11=Red House
EXTD=
EXTT0=
EXTT1=
EXTT2=
EXTT3=
EXTT4=
EXTT5=
EXTT6=
EXTT7=
EXTT8=
EXTT9=
EXTT10=
EXTT11=
PLAYORDER=
